<svg xmlns="http://www.w3.org/2000/svg" viewBox="0 0 169.92 45.63">
  <defs>
    <style>
      .cls-1 {
        fill: #19b841;
      }

      .cls-1, .cls-2, .cls-3 {
        fill-rule: evenodd;
      }

      .cls-2 {
        fill: #1e1e1e;
      }

      .cls-3 {
        fill: #56d73d;
      }
    </style>
  </defs>
  <g id="Слой_2" data-name="Слой 2">
    <g id="Слой_1-2" data-name="Слой 1">
      <path class="cls-1" d="M5.17,40.46H8.9V32.18A22.78,22.78,0,0,1,31.61,9.47h4.56v5.17H31.61A17.61,17.61,0,0,0,14.07,32.18v8.28H17.8a22.79,22.79,0,0,1,22.71-22.1h4.92v4.56A22.78,22.78,0,0,1,22.72,45.63H0V22.92A22.79,22.79,0,0,1,22.71.2h4.56V5.38H22.71A17.61,17.61,0,0,0,5.17,22.92V40.46Zm17.81,0A17.62,17.62,0,0,0,40.25,23.54,17.61,17.61,0,0,0,23,40.46Z"/>
      <path class="cls-1" d="M61,12.67v24H53.61v-24Zm25.53,0v24h-7l-6-10.21c-.56-1-1.17-2.17-1.82-3.6a51.11,51.11,0,0,1,.24,5.49l0,8.32h-7.1v-24H72.1l5.19,9a42.54,42.54,0,0,1,2.36,4.51q-.21-2.73-.21-5.52l0-8Zm4,0h10.71a12.12,12.12,0,0,1,8.82,3.19q3.27,3.18,3.27,8.74,0,5.92-3.15,9t-9.08,3.07H90.53v-24Zm7.2,6V30.59h2.9a5.06,5.06,0,0,0,4-1.55A6.29,6.29,0,0,0,106,24.73a5.91,5.91,0,0,0-1.6-4.51,6.28,6.28,0,0,0-4.5-1.52Z"/>
      <path class="cls-2" d="M60.45.17V2.22H58.2V8.17H55.75V2.22H53.52V.17Zm4.73,0,2.94,8H65.64L65.24,7H62.67l-.39,1.14H59.8l3-8ZM64.7,5.31l-.42-1.37c-.1-.32-.2-.72-.31-1.21-.12.48-.23.89-.33,1.22s-.26.82-.44,1.36ZM75,2.59h-2.3A.72.72,0,0,0,72.37,2a1.26,1.26,0,0,0-.75-.2c-.53,0-.8.17-.8.5a.33.33,0,0,0,.13.25.92.92,0,0,0,.38.21l.44.14a4.46,4.46,0,0,0,.46.11l.29.06a8.32,8.32,0,0,1,.81.24,4.07,4.07,0,0,1,.73.32,2.51,2.51,0,0,1,.64.46,2.14,2.14,0,0,1,.41.64,2.21,2.21,0,0,1,.17.87,2.38,2.38,0,0,1-1,2,4,4,0,0,1-2.55.74,4.17,4.17,0,0,1-2.64-.77,2.65,2.65,0,0,1-1-2.11h2.46c0,.69.46,1,1.25,1a1.29,1.29,0,0,0,.73-.18.55.55,0,0,0,.27-.48.39.39,0,0,0-.16-.32,1.51,1.51,0,0,0-.56-.27c-.28-.1-.6-.2-1-.31s-.62-.18-.71-.22a5.41,5.41,0,0,1-.8-.33A2.84,2.84,0,0,1,69,4a1.51,1.51,0,0,1-.43-.62,2.23,2.23,0,0,1-.14-.85A2.2,2.2,0,0,1,69.36.69a4.41,4.41,0,0,1,4.72,0A2.4,2.4,0,0,1,75,2.6ZM83.39.17v8H80.94V5H78.62V8.17H76.16v-8h2.46V2.85h2.32V.17Zm9,0-2.9,3.11,3.36,4.89H89.82L87.87,5.06l-.72.75V8.17H84.73v-8h2.43V1.79c0,.12,0,.52,0,1.22L89.4.17Zm7.64,0V2.11H95.86v1h3.82V5H95.86V6.13h4.32v2H93.44v-8Zm8.49,0v8h-2.35l-2-3.41a13.11,13.11,0,0,1-.61-1.2,18.05,18.05,0,0,1,.08,1.83V8.17h-2.37v-8h2.43l1.73,3a14,14,0,0,1,.78,1.5c0-.6-.07-1.22-.07-1.84V.17Zm7.87,0V2.22h-2.25V8.17h-2.45V2.22H109.5V.17Z"/>
      <path class="cls-3" d="M136.3,12.68v5.83H123.67v3h11.45v5.56H123.67v3.5h13v6.1H116.43v-24Z"/>
      <path class="cls-3" d="M163.33,12.7H154.7l-3.42,5.12-3.48-5.11h-8.63L147,24.23l-8.31,12.44h8.63l4-6,9.94,14.59h8.63l-14.29-21Z"/>
      <path class="cls-2" d="M54.28,41.29v4h-.71v-4Zm5,0v4h-.73l-1.86-2.95V45.3H56v-4h.74l1.84,3v-3Zm1.69,0h1.52a2.65,2.65,0,0,1,.73.09,1.51,1.51,0,0,1,.58.32,2,2,0,0,1,.59,1.53,2.2,2.2,0,0,1-.56,1.62,1.39,1.39,0,0,1-.54.35,2.54,2.54,0,0,1-.76.1H60.94v-4Zm.69.6v2.82h.83a1.05,1.05,0,0,0,.93-.39,1.81,1.81,0,0,0,.27-1.06,1.54,1.54,0,0,0-.3-1,1.18,1.18,0,0,0-.94-.36Zm7.49-.6v2.45a1.45,1.45,0,0,1-1.63,1.64,1.44,1.44,0,0,1-1.65-1.65V41.29h.7v2.58a.84.84,0,0,0,1,.93,1.26,1.26,0,0,0,.48-.08.56.56,0,0,0,.28-.24,1.09,1.09,0,0,0,.12-.36,2.05,2.05,0,0,0,0-.47V41.29Zm4.56,1.18H73c0-.46-.34-.7-.88-.7a.93.93,0,0,0-.56.15.5.5,0,0,0-.2.41.35.35,0,0,0,.15.33,3.19,3.19,0,0,0,.66.22l.21.06a4.27,4.27,0,0,1,.91.3,1,1,0,0,1,.53.89,1.21,1.21,0,0,1-.09.48,1.13,1.13,0,0,1-.24.36,1.61,1.61,0,0,1-.36.24,1.64,1.64,0,0,1-.43.13,2.42,2.42,0,0,1-.47,0A1.94,1.94,0,0,1,71,45,1.27,1.27,0,0,1,70.56,44h.7a.76.76,0,0,0,.28.65,1.23,1.23,0,0,0,.75.21,1,1,0,0,0,.63-.17.54.54,0,0,0,.23-.46.41.41,0,0,0-.12-.31.69.69,0,0,0-.26-.17,5.06,5.06,0,0,0-.49-.14l-.06,0a5.12,5.12,0,0,1-1-.32.89.89,0,0,1-.52-.78v-.08a1,1,0,0,1,.4-.85,1.71,1.71,0,0,1,1.08-.32,1.75,1.75,0,0,1,1.06.31,1.15,1.15,0,0,1,.43.95Zm4.52-1.18v.61H76.92v3.4h-.7V41.9H74.94v-.61Zm1.33,0h1.89a1.61,1.61,0,0,1,1,.27,1,1,0,0,1,.38.85,1.09,1.09,0,0,1-.17.61,1,1,0,0,1-.49.37.82.82,0,0,1,.25.1.86.86,0,0,1,.17.15.75.75,0,0,1,.1.2,2.25,2.25,0,0,1,.05.22,1.44,1.44,0,0,1,0,.24,1.39,1.39,0,0,1,0,.15c0,.08,0,.13,0,.15a.72.72,0,0,0,0,.13.72.72,0,0,1,0,.13.87.87,0,0,1,0,.1.81.81,0,0,0,0,.11l0,.08a.25.25,0,0,0,0,.09l0,.06h-.76l0-.06s0,0,0-.06a.25.25,0,0,1,0-.07V45a.25.25,0,0,1,0-.08v-.1a.49.49,0,0,1,0-.11s0-.06,0-.11,0-.1,0-.12a1,1,0,0,0-.2-.67.89.89,0,0,0-.67-.19h-.94V45.3h-.69v-4Zm.69.58v1.25h.93l.34,0a1.57,1.57,0,0,0,.29-.08.47.47,0,0,0,.22-.2.69.69,0,0,0,.07-.34.76.76,0,0,0-.06-.32.52.52,0,0,0-.2-.19,1.12,1.12,0,0,0-.26-.08,1.42,1.42,0,0,0-.31,0Zm4.86-.58v4h-.71v-4Zm3.55,0,1.55,4h-.76L89,44.23H87.46l-.4,1.07h-.72l1.54-4Zm.23,2.42L88.26,42l-.62,1.69Zm5.31,1v.61H91.42v-4h.71v3.4Zm5.8-3.4v.59H97.78V43h2v.56h-2V44.7H100v.6H97.09v-4Zm1.08,4,1.43-2.08-1.32-1.93H102l.91,1.42.95-1.42h.79l-1.33,1.93,1.43,2.08h-.86l-1-1.53-1,1.53Zm5-4h1.74a1.59,1.59,0,0,1,1,.31,1.1,1.1,0,0,1,.37.91,1.2,1.2,0,0,1-.35.91,1.33,1.33,0,0,1-.95.34h-1.13V45.3H106v-4Zm.7.59v1.31h1c.51,0,.76-.22.76-.66s-.27-.65-.82-.65Zm5.64-.68a1.76,1.76,0,0,1,1.38.58,2.43,2.43,0,0,1,0,3,1.8,1.8,0,0,1-1.39.58,1.77,1.77,0,0,1-1.39-.58,2.12,2.12,0,0,1-.54-1.52,2.2,2.2,0,0,1,.53-1.5,1.78,1.78,0,0,1,1.41-.59Zm0,.59a1.08,1.08,0,0,0-.89.41,1.66,1.66,0,0,0-.33,1.08,1.71,1.71,0,0,0,.33,1.11,1.16,1.16,0,0,0,1.77,0,1.72,1.72,0,0,0,.33-1.1,1.67,1.67,0,0,0-.33-1.09,1,1,0,0,0-.88-.41Zm3.43-.5h1.89a1.61,1.61,0,0,1,1,.27,1,1,0,0,1,.38.85,1.09,1.09,0,0,1-.17.61,1,1,0,0,1-.49.37.93.93,0,0,1,.25.1.59.59,0,0,1,.16.15.54.54,0,0,1,.1.2,1,1,0,0,1,.06.22c0,.06,0,.14,0,.24a1.39,1.39,0,0,1,0,.15v.15a.72.72,0,0,0,0,.13c0,.06,0,.1,0,.13a.87.87,0,0,1,0,.1.81.81,0,0,0,0,.11.41.41,0,0,0,0,.08.25.25,0,0,0,0,.09l0,.06h-.76l0-.06a.14.14,0,0,1,0-.06.25.25,0,0,1,0-.07s0,0,0-.09,0-.06,0-.08v-.1a.49.49,0,0,1,0-.11s0-.06,0-.11a.68.68,0,0,1,0-.12,1,1,0,0,0-.2-.67.89.89,0,0,0-.67-.19h-.94V45.3h-.69v-4Zm.69.58v1.25h.93l.34,0a1.57,1.57,0,0,0,.29-.08.47.47,0,0,0,.22-.2.69.69,0,0,0,.07-.34.63.63,0,0,0-.07-.32.5.5,0,0,0-.19-.19,1.12,1.12,0,0,0-.26-.08,1.47,1.47,0,0,0-.31,0Zm6.92-.58v.61h-1.28v3.4h-.7V41.9h-1.28v-.61Zm6.32,2.48a1.71,1.71,0,0,1-.52,1.18,1.68,1.68,0,0,1-1.22.44,1.74,1.74,0,0,1-1.36-.57,2.2,2.2,0,0,1-.51-1.52,2.41,2.41,0,0,1,.22-1,1.79,1.79,0,0,1,.66-.76,1.94,1.94,0,0,1,2.13.06,1.46,1.46,0,0,1,.57,1H129a1,1,0,0,0-.33-.57,1.1,1.1,0,0,0-.66-.2,1,1,0,0,0-.67.22,1.24,1.24,0,0,0-.4.56,2.36,2.36,0,0,0-.11.72,2.51,2.51,0,0,0,.06.55,1.82,1.82,0,0,0,.21.47,1,1,0,0,0,.37.35,1.13,1.13,0,0,0,.54.13c.59,0,.93-.34,1-1Zm4.39-2.48v.59h-2.19V43h2v.56h-2V44.7h2.22v.6h-2.92v-4Zm4.78,0v4h-.73l-1.86-2.95V45.3h-.67v-4h.74l1.84,3v-3Zm4.56,0v.61h-1.27v3.4h-.71V41.9h-1.27v-.61Zm4.22,0v.59h-2.19V43h2v.56h-2V44.7h2.22v.6h-2.92v-4Zm1.53,0h1.89a1.65,1.65,0,0,1,1,.27,1,1,0,0,1,.37.85,1,1,0,0,1-.17.61,1,1,0,0,1-.49.37.82.82,0,0,1,.25.1.86.86,0,0,1,.17.15.75.75,0,0,1,.1.2,2.25,2.25,0,0,1,.05.22q0,.09,0,.24a1,1,0,0,0,0,.15v.15s0,.07,0,.13a1.23,1.23,0,0,0,0,.13.58.58,0,0,0,0,.1s0,.08,0,.11l0,.08a.25.25,0,0,0,0,.09l0,.06h-.75s0,0,0-.06l0-.06a.64.64,0,0,0,0-.07s0,0,0-.09a.25.25,0,0,1,0-.08v-.1c0-.05,0-.08,0-.11a.54.54,0,0,0,0-.11V44.5a1,1,0,0,0-.21-.67.89.89,0,0,0-.67-.19h-.93V45.3h-.7v-4Zm.7.58v1.25h.92l.35,0a1.47,1.47,0,0,0,.28-.08.43.43,0,0,0,.22-.2.68.68,0,0,0,.08-.34.76.76,0,0,0-.07-.32.52.52,0,0,0-.2-.19,1.21,1.21,0,0,0-.25-.08,1.57,1.57,0,0,0-.32,0Z"/>
    </g>
  </g>
</svg>
